Coordinates
version=1
nRows=9
nColumns=63
inDegrees=yes

Units are S.I. units (second, meters, Newtons, ...)
If the header above contains a line with 'inDegrees', this indicates whether rotational values are in degrees (yes) or radians (no).

endheader
time	pelvis_tilt	pelvis_list	pelvis_rotation	pelvis_tx	pelvis_ty	pelvis_tz	hip_flexion_r	hip_adduction_r	hip_rotation_r	knee_angle_r	knee_angle_r_beta	ankle_angle_r	subtalar_angle_r	mtp_angle_r	hip_flexion_l	hip_adduction_l	hip_rotation_l	knee_angle_l	knee_angle_l_beta	ankle_angle_l	subtalar_angle_l	mtp_angle_l	L5_S1_Flex_Ext	L5_S1_Lat_Bending	L5_S1_axial_rotation	L4_L5_Flex_Ext	L4_L5_Lat_Bending	L4_L5_axial_rotation	L3_L4_Flex_Ext	L3_L4_Lat_Bending	L3_L4_axial_rotation	L2_L3_Flex_Ext	L2_L3_Lat_Bending	L2_L3_axial_rotation	L1_L2_Flex_Ext	L1_L2_Lat_Bending	L1_L2_axial_rotation	L1_T12_Flex_Ext	L1_T12_Lat_Bending	L1_T12_axial_rotation	Abs_r3	Abs_r2	Abs_r1	Abs_t1	Abs_t2	neck_flexion	neck_bending	neck_rotation	arm_flex_r	arm_add_r	arm_rot_r	elbow_flex_r	pro_sup_r	wrist_flex_r	wrist_dev_r	arm_flex_l	arm_add_l	arm_rot_l	elbow_flex_l	pro_sup_l	wrist_flex_l	wrist_dev_l
      1.14035088	     -2.69664241	     -5.88389622	     85.58056671	      0.00292089	      0.94151519	      0.51683065	      1.32716571	     -3.02745976	     11.76813958	      2.75660155	      0.04811177	     19.01622483	     -4.38924649	      0.00000000	      1.40870785	      0.36459348	     -4.75929371	      2.63838235	      0.04604846	     22.07375262	      4.09114159	      0.00000000	     -0.04654077	     -0.30333315	      2.21658014	     -0.08643087	     -0.40343309	      2.35511640	     -0.07646184	     -0.73752422	      2.35511640	     -0.05319145	     -0.73752422	      1.93950762	     -0.04321776	     -0.61855696	      1.80097137	     -0.02659340	     -0.46986305	      1.66243511	     -0.33243610	     -3.43136526	     12.32795378	      0.00000000	      0.00000000	     25.58665706	      1.40900986	     -6.41024036	      4.09459197	     -7.05611551	     48.44743686	     41.92767938	     72.04167954	     -8.04082217	      2.55485142	     17.90890237	     -6.38015002	     81.89834895	     42.11887139	     84.10671543	    -17.41022739	     -1.95565038
      1.15789474	     -2.68763368	     -5.86246430	     86.02862520	      0.00252416	      0.94170776	      0.51697819	      1.25391632	     -3.06650987	      9.94512742	      2.70232932	      0.04716454	     19.41208880	     -2.28396992	      0.00000000	      1.49343145	      0.34293237	     -4.83076098	      2.72833405	      0.04761841	     22.19551499	      4.71920857	      0.00000000	     -0.05866961	     -0.31100888	      2.14125128	     -0.10895533	     -0.41364181	      2.27507949	     -0.09638830	     -0.75618698	      2.27507949	     -0.06705350	     -0.75618698	      1.87359487	     -0.05448060	     -0.63420930	      1.73976667	     -0.03352382	     -0.48175275	      1.60593846	     -0.41907116	     -3.51819461	     11.90899725	      0.00000000	      0.00000000	     25.73802104	      1.65828514	     -6.64039529	      4.16924093	     -6.96336449	     48.87331046	     41.89621774	     70.52737383	     -7.82646569	      3.13878494	     18.02535552	     -6.39170656	     82.13543861	     42.12075575	     82.66181214	    -16.82317823	     -1.67186870
      1.17543860	     -2.70879686	     -5.89350592	     85.59038829	      0.00282241	      0.94160706	      0.51691259	      1.38911037	     -3.08694102	     10.50033982	      2.77039027	      0.04835243	     19.51007186	     -2.24939755	      0.00000000	      1.43983109	      0.40957138	     -4.22180149	      2.58900851	      0.04518672	     21.99298729	      3.21021322	      0.00000000	     -0.04918972	     -0.31265461	      2.21404828	     -0.09135023	     -0.41583063	      2.35242630	     -0.08081379	     -0.76018841	      2.35242630	     -0.05621893	     -0.76018841	      1.93729225	     -0.04567757	     -0.63756527	      1.79891423	     -0.02810701	     -0.48430198	      1.66053621	     -0.35135724	     -3.53681143	     12.31387235	      0.00000000	      0.00000000	     25.63578504	      1.53314394	     -6.78521722	      4.49772526	     -7.25483772	     49.38129954	     42.19052429	     83.37120100	     -8.28123501	      4.22989401	     17.91402594	     -6.33536045	     81.83183490	     42.11487412	     84.48154621	    -17.21729403	     -1.30632696
      1.19298246	     -2.71752794	     -5.92868152	     85.53187882	      0.00280398	      0.94162724	      0.51691100	      1.47522863	     -3.11687687	      9.46927217	      2.83785700	      0.04952995	     19.91245853	     -0.52912507	      0.00000000	      1.46424333	      0.42621664	     -3.97133628	      2.54543112	      0.04442615	     21.88340160	      2.83778287	      0.00000000	     -0.04347362	     -0.31842474	      2.22886576	     -0.08073486	     -0.42350491	      2.36816987	     -0.07142281	     -0.77421792	      2.36816987	     -0.04968600	     -0.77421792	      1.95025754	     -0.04036961	     -0.64933173	      1.81095343	     -0.02484083	     -0.49323993	      1.67164932	     -0.31052774	     -3.60208437	     12.39628272	      0.00000000	      0.00000000	     25.64232061	      1.50889106	     -7.15434896	      4.78014440	     -7.36833659	     50.56909262	     42.16587915	     84.45109242	     -8.53140225	      4.50218822	     17.87974228	     -6.28848439	     81.87204490	     41.92725690	     84.15468475	    -17.47702297	     -1.95037091
      1.21052632	     -2.73921154	     -5.92125211	     85.53863245	      0.00283205	      0.94166479	      0.51700486	      1.52054415	     -3.16055296	      8.20454314	      2.95117159	      0.05150766	     20.34416465	      1.42747221	      0.00000000	      1.48789206	      0.42446025	     -4.19801784	      2.60211143	      0.04541541	     22.00258186	      3.30646606	      0.00000000	     -0.04713944	     -0.32905088	      2.23055913	     -0.08754265	     -0.43763767	      2.36996908	     -0.07744538	     -0.80005431	      2.36996908	     -0.05387566	     -0.80005431	      1.95173924	     -0.04377368	     -0.67100055	      1.81232929	     -0.02693547	     -0.50969981	      1.67291935	     -0.33671229	     -3.72228936	     12.40570071	      0.00000000	      0.00000000	     25.69929382	      1.75491697	     -7.39133503	      4.93681952	     -7.35192131	     51.07338688	     42.19865974	     86.15442404	     -8.73583037	      4.90420260	     17.79927959	     -6.37876371	     81.43224914	     42.11608056	     83.82061511	    -17.16447902	     -1.58055469
      1.22807018	     -2.74508559	     -5.90373010	     85.53751336	      0.00280907	      0.94172982	      0.51709824	      1.54211180	     -3.18404066	      7.08891534	      3.06268624	      0.05345396	     20.63575278	      3.10104517	      0.00000000	      1.46945886	      0.41781477	     -3.95748910	      2.60630910	      0.04548868	     22.09556353	      3.16439265	      0.00000000	     -0.04780360	     -0.33747723	      2.25149222	     -0.08877607	     -0.44884472	      2.39221049	     -0.07853654	     -0.82054215	      2.39221049	     -0.05463474	     -0.82054215	      1.97005570	     -0.04439043	     -0.68818358	      1.82933743	     -0.02731498	     -0.52275224	      1.68861917	     -0.34145636	     -3.81760997	     12.52212430	      0.00000000	      0.00000000	     25.64601341	      1.87210842	     -7.82313495	      5.01115327	     -7.35744797	     51.31670815	     42.22278642	     86.50680003	     -8.83144212	      4.95908120	     17.84513543	     -6.37585340	     81.52400962	     42.09365333	     83.53420586	    -17.15483693	     -1.77143283
      1.24561404	     -2.73666431	     -5.88617641	     85.58481882	      0.00268698	      0.94182688	      0.51723471	      1.56389829	     -3.19865021	      5.89313047	      3.20769751	      0.05598488	     20.88653527	      4.77332956	      0.00000000	      1.46858464	      0.38160996	     -4.24316246	      2.64403830	      0.04614717	     22.40270847	      3.83881341	      0.00000000	     -0.04534730	     -0.34383496	      2.26186438	     -0.08421448	     -0.45730050	      2.40323091	     -0.07450109	     -0.83600033	      2.40323091	     -0.05182743	     -0.83600033	      1.97913133	     -0.04210951	     -0.70114826	      1.83776481	     -0.02591145	     -0.53260036	      1.69639829	     -0.32391126	     -3.88952988	     12.57981113	      0.00000000	      0.00000000	     25.51582217	      1.97132350	     -8.26363375	      5.01025234	     -7.33315853	     51.16666935	     42.21024907	     86.44685067	     -8.89979855	      4.61804247	     17.96122921	     -6.33859637	     81.93873187	     41.94478689	     83.27830080	    -17.35580022	     -2.27574774
      1.26315789	     -2.70638321	     -5.82612636	     85.58081428	      0.00258359	      0.94198819	      0.51747260	      1.54610873	     -3.20046496	      4.97339981	      3.33111701	      0.05813896	     21.05589839	      6.13088516	      0.00000000	      1.42191129	      0.33800088	     -4.32241317	      2.68331573	      0.04683269	     22.67148957	      4.07252956	      0.00000000	     -0.04678924	     -0.34641306	      2.26537444	     -0.08689230	     -0.46072937	      2.40696034	     -0.07687005	     -0.84226872	      2.40696034	     -0.05347543	     -0.84226872	      1.98220263	     -0.04344849	     -0.70640552	      1.84061673	     -0.02673537	     -0.53659383	      1.69903083	     -0.33421089	     -3.91869384	     12.59933301	      0.00000000	      0.00000000	     25.32104928	      2.14571154	     -8.56439755	      5.02483971	     -7.25950486	     50.72987505	     42.09914947	     86.20279100	     -8.81755484	      4.08212961	     18.05475933	     -6.31466588	     82.23560937	     41.85278037	     83.27849250	    -17.63545504	     -2.45488909
      1.28070175	     -2.68476684	     -5.70009751	     85.48627692	      0.00256160	      0.94221445	      0.51773331	      1.46557889	     -3.21305280	      4.62341034	      3.41268689	      0.05956262	     21.21477092	      6.84935758	      0.00000000	      1.31216507	      0.29831881	     -5.08113421	      2.75212201	      0.04803359	     23.01445785	      5.09453113	      0.00000000	     -0.05651264	     -0.34847648	      2.25973391	     -0.10494961	     -0.46347371	      2.40096728	     -0.09284461	     -0.84728570	      2.40096728	     -0.06458829	     -0.84728570	      1.97726717	     -0.05247763	     -0.71061323	      1.83603380	     -0.03229132	     -0.53979006	      1.69480043	     -0.40366410	     -3.94203558	     12.56796208	      0.00000000	      0.00000000	     25.07638365	      2.38693983	     -8.68224734	      5.08967789	     -7.15628962	     50.25347561	     41.92466671	     85.69926003	     -8.64847908	      3.51879958	     18.05646321	     -6.38887875	     82.15242006	     41.97362131	     83.82647393	    -17.92936126	     -2.09520507
